<svg width="311" height="130" viewBox="0 0 311 130" fill="none" xmlns="http://www.w3.org/2000/svg">
<g clip-path="url(#clip0_10_95)">
<path d="M56.0825 39.65H72.0825" stroke="#414141" stroke-width="16"/>
<path d="M144.597 99.56L162.568 96.3912" stroke="#313131" stroke-width="15.8"/>
<path d="M203.032 92.65L229.032 89.65" stroke="#313131" stroke-width="15.8"/>
<path d="M19.3825 77L11.0825 128" stroke="#313131" stroke-width="21"/>
<path fill-rule="evenodd" clip-rule="evenodd" d="M293.092 112.7H2.97712L0.199951 129.7H290.221L293.092 112.7Z" fill="#313131"/>
<mask id="mask0_10_95" style="mask-type:alpha" maskUnits="userSpaceOnUse" x="3" y="0" width="308" height="110">
<path d="M41.753 6.18182L24.8496 108H3.67059L20.574 6.18182H41.753ZM32.0151 108L44.7424 31.6364H65.9214L53.1941 108H32.0151ZM57.5194 21.6932C54.3707 21.6932 51.7689 20.6491 49.714 18.5611C47.6922 16.4399 46.8636 13.9209 47.2282 11.0043C47.5928 8.0213 49.018 5.50237 51.5038 3.44744C53.9896 1.35937 56.8068 0.315334 59.9555 0.315334C63.1041 0.315334 65.6728 1.35937 67.6614 3.44744C69.6501 5.50237 70.4787 8.0213 70.1472 11.0043C69.8158 13.9209 68.4072 16.4399 65.9214 18.5611C63.4687 20.6491 60.6681 21.6932 57.5194 21.6932ZM114.202 31.6364L111.567 47.5455H64.4364L67.0713 31.6364H114.202ZM65.0827 108L78.7545 26.1179C79.6494 20.5829 81.4723 15.9924 84.2233 12.3466C87.0074 8.70075 90.4378 5.96638 94.5145 4.14346C98.6243 2.32054 103.066 1.40908 107.838 1.40908C111.086 1.40908 114.02 1.65767 116.638 2.15483C119.29 2.65199 121.212 3.09943 122.405 3.49716L116.091 19.4062C115.296 19.1411 114.318 18.8925 113.158 18.6605C111.998 18.4285 110.772 18.3125 109.479 18.3125C106.397 18.3125 104.126 19.0417 102.668 20.5C101.243 21.9252 100.282 23.9304 99.7844 26.5156L86.2119 108H65.0827ZM157.909 31.6364L155.274 47.5455H109.237L111.922 31.6364H157.909ZM125.345 13.3409H146.524L134.691 84.5341C134.36 86.4896 134.41 88.0142 134.841 89.108C135.271 90.1686 135.984 90.9143 136.978 91.3452C138.006 91.776 139.232 91.9915 140.657 91.9915C141.652 91.9915 142.663 91.9086 143.69 91.7429C144.717 91.544 145.496 91.3949 146.027 91.2955L146.822 107.055C145.629 107.42 144.021 107.818 142 108.249C140.011 108.679 137.658 108.945 134.94 109.044C129.77 109.243 125.395 108.563 121.815 107.006C118.235 105.415 115.667 102.979 114.109 99.6974C112.551 96.4162 112.22 92.2898 113.115 87.3182L125.345 13.3409ZM182.96 109.491C175.138 109.491 168.658 107.901 163.521 104.719C158.383 101.504 154.771 96.9631 152.683 91.0966C150.628 85.197 150.28 78.2202 151.639 70.1662C152.964 62.3111 155.632 55.4171 159.643 49.4844C163.686 43.5516 168.757 38.928 174.856 35.6136C180.954 32.2992 187.749 30.642 195.239 30.642C200.277 30.642 204.835 31.4541 208.911 33.0781C213.021 34.669 216.435 37.0885 219.153 40.3366C221.871 43.5516 223.727 47.5786 224.721 52.4176C225.748 57.2566 225.732 62.9242 224.671 69.4205L223.727 75.2372H159.295L161.333 62.1122H205.879C206.376 59.063 206.177 56.3617 205.282 54.0085C204.387 51.6553 202.896 49.8158 200.808 48.4901C198.72 47.1312 196.151 46.4517 193.102 46.4517C189.986 46.4517 187.069 47.214 184.352 48.7386C181.634 50.2633 179.347 52.2685 177.491 54.7543C175.668 57.2069 174.491 59.875 173.961 62.7585L171.624 75.7841C170.961 79.7945 171.094 83.1255 172.022 85.777C172.983 88.4285 174.64 90.4171 176.994 91.7429C179.347 93.0355 182.33 93.6818 185.943 93.6818C188.296 93.6818 190.5 93.3504 192.555 92.6875C194.643 92.0246 196.499 91.0469 198.123 89.7543C199.747 88.4285 201.073 86.7879 202.1 84.8324L221.44 86.125C219.65 90.8314 216.932 94.9413 213.286 98.4545C209.64 101.935 205.249 104.652 200.112 106.608C195.007 108.53 189.29 109.491 182.96 109.491ZM250.406 109.243C244.572 109.243 239.551 107.751 235.342 104.768C231.166 101.752 228.183 97.3277 226.393 91.4943C224.636 85.6278 224.471 78.4356 225.896 69.9176C227.354 61.1676 229.972 53.8925 233.751 48.0923C237.529 42.259 242.004 37.9006 247.174 35.017C252.345 32.1004 257.73 30.642 263.332 30.642C267.574 30.642 271.005 31.3712 273.623 32.8295C276.275 34.2547 278.313 36.0445 279.738 38.1989C281.163 40.3201 282.158 42.4081 282.721 44.4631H283.367L289.781 6.18182H310.91L294.007 108H273.126L275.164 95.7699H274.269C272.944 97.8911 271.187 99.9957 268.999 102.084C266.845 104.139 264.227 105.846 261.144 107.205C258.095 108.563 254.516 109.243 250.406 109.243ZM259.752 92.3892C263.133 92.3892 266.182 91.4612 268.9 89.6051C271.618 87.7159 273.905 85.081 275.761 81.7003C277.617 78.3196 278.909 74.3589 279.639 69.8182C280.401 65.2775 280.418 61.3333 279.688 57.9858C278.959 54.6383 277.534 52.053 275.413 50.2301C273.325 48.4072 270.557 47.4957 267.11 47.4957C263.63 47.4957 260.548 48.4403 257.863 50.3295C255.212 52.2187 253.007 54.8371 251.251 58.1847C249.527 61.5322 248.301 65.41 247.572 69.8182C246.843 74.2595 246.793 78.187 247.423 81.6009C248.052 84.9815 249.395 87.633 251.45 89.5554C253.505 91.4446 256.272 92.3892 259.752 92.3892Z" fill="black"/>
</mask>
<g mask="url(#mask0_10_95)">
<rect width="400.261" height="49.4094" transform="matrix(0.994716 0.102661 -0.10641 0.994322 -18.6196 56.3751)" fill="#313131"/>
<rect width="400.261" height="49.4094" transform="matrix(0.994716 0.102661 -0.10641 0.994322 -13.3619 7.24631)" fill="#414141"/>
<rect width="400.261" height="34.5558" transform="matrix(0.994716 0.102661 -0.10641 0.994322 -9.68469 -27.1133)" fill="#4B4B4B"/>
</g>
</g>
<defs>
<clipPath id="clip0_10_95">
<rect width="311" height="130" fill="white"/>
</clipPath>
</defs>
</svg>
