<svg width="158" height="132" viewBox="0 0 158 132" fill="none" xmlns="http://www.w3.org/2000/svg">
<g clip-path="url(#clip0_31_116)">
<rect width="138.687" height="42.6933" transform="matrix(0.994716 0.102661 -0.10641 0.994322 19.8289 75)" fill="#15616D"/>
<rect width="131.922" height="43.2893" transform="matrix(0.994716 0.102661 -0.10641 0.994322 4.6064 33)" fill="#FF7D00"/>
<rect width="128.042" height="40.8132" transform="matrix(0.994716 0.102661 -0.10641 0.994322 29.6288 0)" fill="#FFD5AD"/>
<g filter="url(#filter0_d_31_116)">
<path d="M86.4859 87.6C98.1766 87.6 104.022 87.6 107.654 83.968C111.286 80.3364 111.286 74.4907 111.286 62.8C111.286 51.1092 111.286 45.2638 107.654 41.6319C104.022 38 98.1766 38 86.4859 38H74.0859C62.3951 38 56.5497 38 52.9178 41.6319C49.2859 45.2638 49.2859 51.1092 49.2859 62.8C49.2859 74.4907 49.2859 80.3364 52.9178 83.968C54.9426 85.993 57.6556 86.8889 61.6859 87.2853" stroke="white" stroke-width="10" stroke-linecap="round" stroke-linejoin="round"/>
<path d="M80.2859 62.8V62.831" stroke="white" stroke-width="10" stroke-linecap="round"/>
<path d="M67.8859 62.8V62.831" stroke="white" stroke-width="10" stroke-linecap="round"/>
<path d="M92.6859 62.8V62.831" stroke="white" stroke-width="10" stroke-linecap="round"/>
<path d="M86.4859 87.6C82.6528 87.6 78.4327 89.1475 74.5776 91.1495C68.3856 94.3645 65.2896 95.9722 63.764 94.9479C62.2383 93.9234 62.5271 90.7468 63.1047 84.3937L63.2359 82.95" stroke="white" stroke-width="10" stroke-linecap="round"/>
</g>
</g>
<defs>
<filter id="filter0_d_31_116" x="34.2859" y="23" width="92" height="87.2544" filterUnits="userSpaceOnUse" color-interpolation-filters="sRGB">
<feFlood flood-opacity="0" result="BackgroundImageFix"/>
<feColorMatrix in="SourceAlpha" type="matrix" values="0 0 0 0 0 0 0 0 0 0 0 0 0 0 0 0 0 0 127 0" result="hardAlpha"/>
<feOffset/>
<feGaussianBlur stdDeviation="5"/>
<feComposite in2="hardAlpha" operator="out"/>
<feColorMatrix type="matrix" values="0 0 0 0 0 0 0 0 0 0 0 0 0 0 0 0 0 0 0.25 0"/>
<feBlend mode="normal" in2="BackgroundImageFix" result="effect1_dropShadow_31_116"/>
<feBlend mode="normal" in="SourceGraphic" in2="effect1_dropShadow_31_116" result="shape"/>
</filter>
<clipPath id="clip0_31_116">
<rect width="158" height="132" fill="white"/>
</clipPath>
</defs>
</svg>
